<svg width="27" height="26" viewBox="0 0 27 26" fill="none" xmlns="http://www.w3.org/2000/svg">
<g clip-path="url(#clip0_161_170)">
<path d="M13.5 0.5C6.425 0.5 0.5 5.58 0.5 12C0.5 15.03 1.859 17.748 4 19.781C3.73915 20.4611 3.36968 21.0943 2.906 21.656C2.29087 22.4023 1.61125 23.0929 0.875 23.72C0.713516 23.8496 0.596224 24.026 0.539309 24.2251C0.482394 24.4241 0.488664 24.636 0.557252 24.8313C0.62584 25.0266 0.753365 25.1959 0.922229 25.3156C1.09109 25.4354 1.29297 25.4998 1.5 25.5C3.715 25.5 5.308 25.475 6.75 25.094C8.04 24.752 9.149 24.036 10.281 23.031C11.311 23.278 12.374 23.5 13.5 23.5C20.575 23.5 26.5 18.42 26.5 12C26.5 5.58 20.575 0.5 13.5 0.5ZM13.5 2.5C19.625 2.5 24.5 6.82 24.5 12C24.5 17.18 19.625 21.5 13.5 21.5C12.411 21.5 11.28 21.312 10.25 21.031C10.0853 20.9896 9.91274 20.9908 9.74863 21.0345C9.58452 21.0783 9.43425 21.1631 9.312 21.281C8.187 22.36 7.358 22.863 6.25 23.156C5.74 23.291 4.756 23.259 4.062 23.313C4.202 23.155 4.333 23.071 4.469 22.906C5.255 21.946 5.972 20.931 6.188 19.781C6.21775 19.6084 6.20164 19.431 6.14127 19.2665C6.08089 19.1021 5.97838 18.9564 5.844 18.844C3.749 17.114 2.5 14.689 2.5 12C2.5 6.82 7.375 2.5 13.5 2.5ZM11.594 6.406C11.418 6.4455 11.2559 6.53189 11.125 6.656L9.625 8.063L10.969 9.531L12.156 8.406H14.562L15.5 9.47V10.939L12.937 12.657C12.8 12.7503 12.6883 12.8762 12.6121 13.0233C12.5358 13.1705 12.4973 13.3343 12.5 13.5V15.5H14.5V14.062L17.063 12.344C17.2001 12.2506 17.3119 12.1246 17.3882 11.9772C17.4645 11.8299 17.5029 11.6659 17.5 11.5V9.094C17.4987 8.85231 17.4099 8.61927 17.25 8.438L15.75 6.75C15.6567 6.6426 15.5415 6.55636 15.4121 6.49704C15.2828 6.43772 15.1423 6.40668 15 6.406H11.812C11.7396 6.39806 11.6664 6.39806 11.594 6.406ZM12.5 16.5V18.5H14.5V16.5H12.5Z" fill="white"/>
</g>
<defs>
<clipPath id="clip0_161_170">
<rect width="26" height="25" fill="white" transform="translate(0.5 0.5)"/>
</clipPath>
</defs>
</svg>
