<svg width="16" height="16" viewBox="0 0 16 16" fill="none" xmlns="http://www.w3.org/2000/svg">
<path d="M13.9583 15.625L8.70833 10.375C8.29167 10.7083 7.8125 10.9722 7.27083 11.1667C6.72917 11.3611 6.15278 11.4583 5.54167 11.4583C4.02778 11.4583 2.74667 10.9339 1.69833 9.885C0.65 8.83611 0.125556 7.555 0.125 6.04167C0.125 4.52778 0.649444 3.24667 1.69833 2.19833C2.74722 1.15 4.02833 0.625556 5.54167 0.625C7.05556 0.625 8.33694 1.14944 9.38583 2.19833C10.4347 3.24722 10.9589 4.52833 10.9583 6.04167C10.9583 6.65278 10.8611 7.22917 10.6667 7.77083C10.4722 8.3125 10.2083 8.79167 9.875 9.20833L15.125 14.4583L13.9583 15.625ZM5.54167 9.79167C6.58333 9.79167 7.46889 9.42722 8.19833 8.69833C8.92778 7.96944 9.29222 7.08389 9.29167 6.04167C9.29167 5 8.92722 4.11472 8.19833 3.38583C7.46944 2.65694 6.58389 2.29222 5.54167 2.29167C4.5 2.29167 3.61472 2.65639 2.88583 3.38583C2.15694 4.11528 1.79222 5.00056 1.79167 6.04167C1.79167 7.08333 2.15639 7.96889 2.88583 8.69833C3.61528 9.42778 4.50056 9.79222 5.54167 9.79167Z" fill="white"/>
</svg>
