<svg width="33" height="22" viewBox="0 0 33 22" fill="none" xmlns="http://www.w3.org/2000/svg">
<path d="M0.5 0V2H19.5V17H13.344C12.898 15.281 11.352 14 9.5 14C7.648 14 6.102 15.281 5.656 17H4.5V12H2.5V19H5.656C6.102 20.719 7.648 22 9.5 22C11.352 22 12.898 20.719 13.344 19H21.656C22.102 20.719 23.648 22 25.5 22C27.352 22 28.898 20.719 29.344 19H32.5V10.844L32.437 10.687L30.437 4.687L30.22 4H21.5V0H0.5ZM1.5 4V6H10.5V4H1.5ZM21.5 6H28.781L30.5 11.125V17H29.344C28.898 15.281 27.352 14 25.5 14C23.648 14 22.102 15.281 21.656 17H21.5V6ZM2.5 8V10H8.5V8H2.5ZM9.5 16C10.617 16 11.5 16.883 11.5 18C11.5 19.117 10.617 20 9.5 20C8.383 20 7.5 19.117 7.5 18C7.5 16.883 8.383 16 9.5 16ZM25.5 16C26.617 16 27.5 16.883 27.5 18C27.5 19.117 26.617 20 25.5 20C24.383 20 23.5 19.117 23.5 18C23.5 16.883 24.383 16 25.5 16Z" fill="white"/>
</svg>
