<svg width="33" height="32" viewBox="0 0 33 32" fill="none" xmlns="http://www.w3.org/2000/svg">
<path d="M19.0156 18.4219C18.099 17.6406 17.0833 17.0417 15.9688 16.625C14.8542 16.2083 13.6979 16 12.5 16C11.5833 16 10.6979 16.1198 9.84375 16.3594C8.98958 16.599 8.19271 16.9323 7.45312 17.3594C6.71354 17.7865 6.04167 18.3073 5.4375 18.9219C4.83333 19.5365 4.3125 20.2135 3.875 20.9531C3.4375 21.6927 3.09896 22.4896 2.85938 23.3438C2.61979 24.1979 2.5 25.0833 2.5 26H0.5C0.5 24.75 0.682292 23.5469 1.04688 22.3906C1.41146 21.2344 1.9375 20.1667 2.625 19.1875C3.3125 18.2083 4.125 17.3385 5.0625 16.5781C6 15.8177 7.0625 15.2188 8.25 14.7812C7.07292 14.0104 6.15625 13.0417 5.5 11.875C4.84375 10.7083 4.51042 9.41667 4.5 8C4.5 6.89583 4.70833 5.85938 5.125 4.89062C5.54167 3.92188 6.10938 3.07292 6.82812 2.34375C7.54688 1.61458 8.39583 1.04167 9.375 0.625C10.3542 0.208333 11.3958 0 12.5 0C13.6042 0 14.6406 0.208333 15.6094 0.625C16.5781 1.04167 17.4271 1.60938 18.1562 2.32812C18.8854 3.04688 19.4583 3.89583 19.875 4.875C20.2917 5.85417 20.5 6.89583 20.5 8C20.5 8.6875 20.4167 9.35938 20.25 10.0156C20.0833 10.6719 19.8333 11.2917 19.5 11.875C19.1667 12.4583 18.776 12.9948 18.3281 13.4844C17.8802 13.974 17.3542 14.4062 16.75 14.7812C17.4271 15.0417 18.0729 15.3594 18.6875 15.7344C19.3021 16.1094 19.8802 16.5312 20.4219 17L19.0156 18.4219ZM6.5 8C6.5 8.83333 6.65625 9.60938 6.96875 10.3281C7.28125 11.0469 7.70833 11.6823 8.25 12.2344C8.79167 12.7865 9.42708 13.2188 10.1562 13.5312C10.8854 13.8438 11.6667 14 12.5 14C13.3229 14 14.099 13.8438 14.8281 13.5312C15.5573 13.2188 16.1927 12.7917 16.7344 12.25C17.276 11.7083 17.7083 11.0729 18.0312 10.3438C18.3542 9.61458 18.5104 8.83333 18.5 8C18.5 7.17708 18.3438 6.40104 18.0312 5.67188C17.7188 4.94271 17.2917 4.30729 16.75 3.76562C16.2083 3.22396 15.5677 2.79167 14.8281 2.46875C14.0885 2.14583 13.3125 1.98958 12.5 2C11.6667 2 10.8906 2.15625 10.1719 2.46875C9.45312 2.78125 8.81771 3.20833 8.26562 3.75C7.71354 4.29167 7.28125 4.93229 6.96875 5.67188C6.65625 6.41146 6.5 7.1875 6.5 8ZM27.5 12C28.1875 12 28.8333 12.1302 29.4375 12.3906C30.0417 12.651 30.5677 13.0104 31.0156 13.4688C31.4635 13.9271 31.8229 14.4583 32.0938 15.0625C32.3646 15.6667 32.5 16.3125 32.5 17C32.5 17.6875 32.3698 18.3333 32.1094 18.9375C31.849 19.5417 31.4896 20.0729 31.0312 20.5312C30.5729 20.9896 30.0417 21.349 29.4375 21.6094C28.8333 21.8698 28.1875 22 27.5 22C27.2604 22 27.026 21.9844 26.7969 21.9531L17.625 31.125C17.3438 31.4062 17.0208 31.6198 16.6562 31.7656C16.2917 31.9115 15.9062 31.9896 15.5 32C15.0833 32 14.6927 31.9219 14.3281 31.7656C13.9635 31.6094 13.6458 31.3958 13.375 31.125C13.1042 30.8542 12.8906 30.5365 12.7344 30.1719C12.5781 29.8073 12.5 29.4167 12.5 29C12.5 28.6042 12.5729 28.224 12.7188 27.8594C12.8646 27.4948 13.0833 27.1667 13.375 26.875L22.5469 17.7031C22.5156 17.474 22.5 17.2396 22.5 17C22.5 16.3125 22.6302 15.6667 22.8906 15.0625C23.151 14.4583 23.5052 13.9323 23.9531 13.4844C24.401 13.0365 24.9323 12.6771 25.5469 12.4062C26.1615 12.1354 26.8125 12 27.5 12ZM27.5 20C27.9167 20 28.3073 19.9219 28.6719 19.7656C29.0365 19.6094 29.3542 19.3958 29.625 19.125C29.8958 18.8542 30.1094 18.5365 30.2656 18.1719C30.4219 17.8073 30.5 17.4167 30.5 17C30.5 16.5729 30.401 16.1458 30.2031 15.7188L27.9219 18H26.5V16.5781L28.7812 14.2969C28.3542 14.099 27.9271 14 27.5 14C27.0833 14 26.6927 14.0781 26.3281 14.2344C25.9635 14.3906 25.6458 14.6042 25.375 14.875C25.1042 15.1458 24.8906 15.4635 24.7344 15.8281C24.5781 16.1927 24.5 16.5833 24.5 17C24.5 17.4271 24.599 17.8542 24.7969 18.2812L14.7969 28.2969C14.599 28.4948 14.5 28.7292 14.5 29C14.5 29.2708 14.599 29.5052 14.7969 29.7031C14.9948 29.901 15.2292 30 15.5 30C15.7708 30 16.0052 29.901 16.2031 29.7031L26.2188 19.7031C26.6458 19.901 27.0729 20 27.5 20Z" fill="white"/>
</svg>
