<svg width="15" height="16" viewBox="0 0 15 16" fill="none" xmlns="http://www.w3.org/2000/svg">
<path d="M7.5 0.5C8.49456 0.5 9.44839 0.895088 10.1517 1.59835C10.8549 2.30161 11.25 3.25544 11.25 4.25C11.25 5.24456 10.8549 6.19839 10.1517 6.90165C9.44839 7.60491 8.49456 8 7.5 8C6.50544 8 5.55161 7.60491 4.84835 6.90165C4.14509 6.19839 3.75 5.24456 3.75 4.25C3.75 3.25544 4.14509 2.30161 4.84835 1.59835C5.55161 0.895088 6.50544 0.5 7.5 0.5ZM7.5 9.875C11.6438 9.875 15 11.5531 15 13.625V15.5H0V13.625C0 11.5531 3.35625 9.875 7.5 9.875Z" fill="white"/>
</svg>
