<svg width="27" height="27" viewBox="0 0 27 27" fill="none" xmlns="http://www.w3.org/2000/svg">
<path d="M7.94444 26H19.0556C20.8973 26 22.6637 25.2684 23.966 23.966C25.2684 22.6637 26 20.8973 26 19.0556V14.8889C26 13.7838 25.561 12.724 24.7796 11.9426C23.9982 11.1612 22.9384 10.7222 21.8333 10.7222H20.4444V7.94444C20.4444 6.10266 19.7128 4.33632 18.4105 3.03398C17.1081 1.73164 15.3418 1 13.5 1H7.94444C6.10266 1 4.33632 1.73164 3.03398 3.03398C1.73164 4.33632 1 6.10266 1 7.94444V19.0556C1 20.8973 1.73164 22.6637 3.03398 23.966C4.33632 25.2684 6.10266 26 7.94444 26Z" stroke="#CEB0FF" stroke-width="2" stroke-linecap="round" stroke-linejoin="round"/>
<path d="M7.94482 8.63851C7.94482 8.08597 8.16432 7.55607 8.55502 7.16537C8.94572 6.77467 9.47562 6.55518 10.0282 6.55518H14.1948C14.7474 6.55518 15.2773 6.77467 15.668 7.16537C16.0587 7.55607 16.2782 8.08597 16.2782 8.63851C16.2782 9.19104 16.0587 9.72095 15.668 10.1116C15.2773 10.5023 14.7474 10.7218 14.1948 10.7218H10.0282C9.47562 10.7218 8.94572 10.5023 8.55502 10.1116C8.16432 9.72095 7.94482 9.19104 7.94482 8.63851ZM7.94482 18.3607C7.94482 17.8082 8.16432 17.2783 8.55502 16.8876C8.94572 16.4969 9.47562 16.2774 10.0282 16.2774H19.7504C20.3029 16.2774 20.8328 16.4969 21.2235 16.8876C21.6142 17.2783 21.8337 17.8082 21.8337 18.3607C21.8337 18.9133 21.6142 19.4432 21.2235 19.8339C20.8328 20.2246 20.3029 20.4441 19.7504 20.4441H10.0282C9.47562 20.4441 8.94572 20.2246 8.55502 19.8339C8.16432 19.4432 7.94482 18.9133 7.94482 18.3607Z" stroke="#CEB0FF" stroke-width="2" stroke-linecap="round" stroke-linejoin="round"/>
</svg>
