<svg width="30" height="30" viewBox="0 0 30 30" fill="none" xmlns="http://www.w3.org/2000/svg">
<path d="M15 5C16.0688 5 17.165 5.0275 18.2275 5.0725L19.4825 5.1325L20.6838 5.20375L21.8088 5.28L22.8362 5.36C23.9513 5.44535 25.0006 5.92118 25.7994 6.7038C26.5983 7.48642 27.0955 8.52567 27.2038 9.63875L27.2537 10.17L27.3475 11.3075C27.435 12.4862 27.5 13.7712 27.5 15C27.5 16.2288 27.435 17.5138 27.3475 18.6925L27.2537 19.83C27.2375 20.0125 27.2213 20.1887 27.2038 20.3612C27.0955 21.4745 26.598 22.5139 25.7989 23.2966C24.9998 24.0792 23.9503 24.5549 22.835 24.64L21.81 24.7188L20.685 24.7962L19.4825 24.8675L18.2275 24.9275C17.1523 24.9742 16.0762 24.9984 15 25C13.9238 24.9984 12.8477 24.9742 11.7725 24.9275L10.5175 24.8675L9.31625 24.7962L8.19125 24.7188L7.16375 24.64C6.04869 24.5547 4.99944 24.0788 4.20059 23.2962C3.40174 22.5136 2.90447 21.4743 2.79625 20.3612L2.74625 19.83L2.6525 18.6925C2.55692 17.4639 2.50606 16.2323 2.5 15C2.5 13.7712 2.565 12.4862 2.6525 11.3075L2.74625 10.17C2.7625 9.9875 2.77875 9.81125 2.79625 9.63875C2.90443 8.52587 3.40152 7.48677 4.20011 6.70418C4.99871 5.92159 6.04766 5.44563 7.1625 5.36L8.18875 5.28L9.31375 5.20375L10.5163 5.1325L11.7712 5.0725C12.8469 5.02579 13.9234 5.00162 15 5ZM15 7.5C13.9688 7.5 12.9075 7.5275 11.875 7.57L10.6525 7.62875L9.47875 7.6975L8.37625 7.7725L7.36625 7.85125C6.83541 7.88891 6.33506 8.11331 5.95387 8.48466C5.57268 8.85601 5.33528 9.35033 5.28375 9.88C5.1375 11.3912 5 13.2725 5 15C5 16.7275 5.1375 18.6088 5.28375 20.12C5.39 21.21 6.255 22.0575 7.36625 22.1488L8.37625 22.2262L9.47875 22.3013L10.6525 22.3713L11.875 22.43C12.9075 22.4725 13.9688 22.5 15 22.5C16.0312 22.5 17.0925 22.4725 18.125 22.43L19.3475 22.3713L20.5212 22.3025L21.6237 22.2275L22.6338 22.1488C23.1646 22.1111 23.6649 21.8867 24.0461 21.5153C24.4273 21.144 24.6647 20.6497 24.7163 20.12C24.8625 18.6088 25 16.7275 25 15C25 13.2725 24.8625 11.3912 24.7163 9.88C24.6647 9.35033 24.4273 8.85601 24.0461 8.48466C23.6649 8.11331 23.1646 7.88891 22.6338 7.85125L21.6237 7.77375L20.5212 7.69875L19.3475 7.62875L18.125 7.57C17.0839 7.52521 16.042 7.50187 15 7.5ZM12.5 11.9688C12.4999 11.8466 12.5297 11.7262 12.5867 11.6182C12.6437 11.5101 12.7263 11.4177 12.8272 11.3488C12.9281 11.2799 13.0443 11.2367 13.1657 11.223C13.2871 11.2093 13.41 11.2254 13.5238 11.27L13.625 11.32L18.875 14.35C18.9795 14.4103 19.068 14.495 19.1328 14.5968C19.1976 14.6986 19.2369 14.8146 19.2474 14.9348C19.2578 15.0551 19.239 15.176 19.1927 15.2875C19.1464 15.399 19.0738 15.4976 18.9813 15.575L18.875 15.65L13.625 18.6812C13.5192 18.7425 13.4 18.777 13.2779 18.7817C13.1557 18.7863 13.0342 18.7611 12.9241 18.7081C12.8139 18.6551 12.7183 18.576 12.6457 18.4776C12.5731 18.3793 12.5257 18.2646 12.5075 18.1438L12.5 18.0312V11.9688Z" fill="#CEB0FF"/>
</svg>
