<svg width="463" height="73" viewBox="0 0 463 73" fill="none" xmlns="http://www.w3.org/2000/svg">
<path d="M0.882102 0.272725H20.5199L35.8963 30.706H36.5355L51.9119 0.272725H71.5497L44.9517 48.7102V73H27.4801V48.7102L0.882102 0.272725ZM87.228 73H68.3359L92.8743 0.272725H116.276L140.815 73H121.923L104.842 18.5966H104.273L87.228 73ZM84.7067 44.3778H124.195V57.7301H84.7067V44.3778ZM148.645 0.272725H170.413L188.879 45.3011H189.732L208.197 0.272725H229.966V73H212.849V28.3267H212.246L194.774 72.5384H183.837L166.365 28.0781H165.761V73H148.645V0.272725ZM256.662 73H237.77L262.308 0.272725H285.71L310.248 73H291.356L274.275 18.5966H273.707L256.662 73ZM254.14 44.3778H293.629V57.7301H254.14V44.3778ZM318.078 73V0.272725H335.657V29.4631H364.314V0.272725H381.857V73H364.314V43.7741H335.657V73H318.078ZM408.615 73H389.723L414.261 0.272725H437.663L462.201 73H443.309L426.228 18.5966H425.66L408.615 73ZM406.093 44.3778H445.582V57.7301H406.093V44.3778Z" fill="white"/>
</svg>
